<svg id="visual" viewBox="0 0 900 600" width="900" height="600" xmlns="http://www.w3.org/2000/svg" xmlns:xlink="http://www.w3.org/1999/xlink" version="1.1"><rect x="0" y="0" width="900" height="600" fill="#002233"></rect><path d="M0 133L21.5 145.8C43 158.7 86 184.3 128.8 183.7C171.7 183 214.3 156 257.2 155.5C300 155 343 181 385.8 189.7C428.7 198.3 471.3 189.7 514.2 177.3C557 165 600 149 642.8 138.3C685.7 127.7 728.3 122.3 771.2 130.2C814 138 857 159 878.5 169.5L900 180L900 0L878.5 0C857 0 814 0 771.2 0C728.3 0 685.7 0 642.8 0C600 0 557 0 514.2 0C471.3 0 428.7 0 385.8 0C343 0 300 0 257.2 0C214.3 0 171.7 0 128.8 0C86 0 43 0 21.5 0L0 0Z" fill="#f26b30" stroke-linecap="round" stroke-linejoin="miter"></path></svg>